<svg width="32" height="32" viewBox="0 0 32 32" fill="none" xmlns="http://www.w3.org/2000/svg">
<g clip-path="url(#clip0_6_514)">
<path d="M14.6542 0.6682L0.668885 14.642C-0.0829877 15.3933 -0.0829877 16.6067 0.668885 17.3579L14.6542 31.3317C15.4061 32.083 16.6205 32.083 17.3723 31.3317L23.2362 25.4727C23.9095 24.7999 23.9095 23.7091 23.2362 23.0363C22.5628 22.3635 21.4711 22.3635 20.7977 23.0363L16.3524 27.4779C16.1653 27.6649 15.8812 27.6649 15.6941 27.4779L4.52584 16.3189C4.3387 16.1319 4.3387 15.8481 4.52584 15.6611L15.6941 4.50202C15.8812 4.31503 16.1653 4.31503 16.3524 4.50202L20.7977 8.94369C21.4711 9.61649 22.5628 9.61649 23.2362 8.94369C23.9095 8.27089 23.9095 7.18006 23.2362 6.50725L17.373 0.648875C16.618 -0.0861221 15.4032 -0.0801718 14.6542 0.6682Z" fill="url(#paint0_linear_6_514)"/>
<path d="M14.6542 0.6682L0.668885 14.642C-0.0829877 15.3933 -0.0829877 16.6067 0.668885 17.3579L14.6542 31.3317C15.4061 32.083 16.6205 32.083 17.3723 31.3317L23.2362 25.4727C23.9095 24.7999 23.9095 23.7091 23.2362 23.0363C22.5628 22.3635 21.4711 22.3635 20.7977 23.0363L16.3524 27.4779C16.1653 27.6649 15.8812 27.6649 15.6941 27.4779L4.52584 16.3189C4.3387 16.1319 4.3387 15.8481 4.52584 15.6611L15.6941 4.50202C16.1601 4.10031 16.9204 3.28665 18.0368 3.09635C18.8666 2.95492 19.7737 3.2662 20.7583 4.03019C20.1 3.3725 18.9716 2.2454 17.373 0.648875C16.618 -0.0861221 15.4032 -0.0801718 14.6542 0.6682Z" fill="url(#paint1_linear_6_514)"/>
<path d="M24.5898 21.7366C25.2631 22.4095 26.3549 22.4095 27.0282 21.7366L31.3537 17.4148C32.1055 16.6635 32.1055 15.4501 31.3538 14.6989L26.9906 10.3548C26.3156 9.68281 25.2236 9.68377 24.5498 10.357C23.8765 11.0298 23.8765 12.1206 24.5498 12.7934L27.4967 15.7379C27.6839 15.9249 27.6839 16.2087 27.4967 16.3957L24.5898 19.3002C23.9164 19.973 23.9164 21.0638 24.5898 21.7366Z" fill="url(#paint2_linear_6_514)"/>
<path d="M16.083 19.8428C18.1685 19.8428 19.8591 18.1536 19.8591 16.0698C19.8591 13.9861 18.1685 12.2969 16.083 12.2969C13.9976 12.2969 12.307 13.9861 12.307 16.0698C12.307 18.1536 13.9976 19.8428 16.083 19.8428Z" fill="url(#paint3_linear_6_514)"/>
</g>
<defs>
<linearGradient id="paint0_linear_6_514" x1="14.7836" y1="0.102235" x2="28.0737" y2="8.21829" gradientUnits="userSpaceOnUse">
<stop stop-color="#4285EB"/>
<stop offset="1" stop-color="#2EC7FF"/>
</linearGradient>
<linearGradient id="paint1_linear_6_514" x1="16.5662" y1="0.102234" x2="10.0021" y2="34.0272" gradientUnits="userSpaceOnUse">
<stop stop-color="#29CDFF"/>
<stop offset="0.378601" stop-color="#148EFF"/>
<stop offset="1" stop-color="#0A60FF"/>
</linearGradient>
<linearGradient id="paint2_linear_6_514" x1="29.5314" y1="8.24394" x2="20.9905" y2="21.6012" gradientUnits="userSpaceOnUse">
<stop stop-color="#FA816E"/>
<stop offset="0.414726" stop-color="#F74A5C"/>
<stop offset="1" stop-color="#F51D2C"/>
</linearGradient>
<linearGradient id="paint3_linear_6_514" x1="17.4521" y1="9.60375" x2="14.6103" y2="20.9714" gradientUnits="userSpaceOnUse">
<stop stop-color="#FA8E7D"/>
<stop offset="0.512635" stop-color="#F74A5C"/>
<stop offset="1" stop-color="#F51D2C"/>
</linearGradient>
<clipPath id="clip0_6_514">
<rect width="32" height="32" fill="white"/>
</clipPath>
</defs>
</svg>
